<svg xmlns="http://www.w3.org/2000/svg" width="30.478" height="31.1" viewBox="0 0 30.478 31.1"><defs><style>.a{fill:#4285f4;}.b{fill:#34a853;}.c{fill:#fbbc05;}.d{fill:#eb4335;}</style></defs><path class="a" d="M145.478,109.94a13.326,13.326,0,0,0-.328-3.179h-14.6v5.771h8.57a7.6,7.6,0,0,1-3.179,5.045l-.029.193,4.616,3.576.32.032a15.2,15.2,0,0,0,4.63-11.438" transform="translate(-115 -94.045)"/><path class="b" d="M27.816,168.845a14.821,14.821,0,0,0,10.3-3.767l-4.907-3.8a9.2,9.2,0,0,1-5.391,1.555,9.361,9.361,0,0,1-8.846-6.462l-.182.015-4.8,3.715-.063.174a15.539,15.539,0,0,0,13.891,8.57" transform="translate(-12.266 -137.745)"/><path class="c" d="M6.7,81.443a9.573,9.573,0,0,1-.518-3.075,10.06,10.06,0,0,1,.5-3.075l-.009-.206-4.86-3.774-.159.076a15.517,15.517,0,0,0,0,13.96l5.045-3.9" transform="translate(0 -62.818)"/><path class="d" d="M27.816,6.013a8.618,8.618,0,0,1,6.013,2.315l4.389-4.285A14.94,14.94,0,0,0,27.816,0,15.539,15.539,0,0,0,13.925,8.57l5.028,3.9a9.4,9.4,0,0,1,8.864-6.462" transform="translate(-12.266)"/></svg>